<svg width="424" height="424" viewBox="0 0 424 424" fill="none" xmlns="http://www.w3.org/2000/svg">
<g clip-path="url(#clip0_23_68)">
<g opacity="0.03">
<path d="M207 423.76C334.932 423.76 438.64 413.167 438.64 400.1C438.64 387.033 334.932 376.44 207 376.44C79.0691 376.44 -24.6396 387.033 -24.6396 400.1C-24.6396 413.167 79.0691 423.76 207 423.76Z" fill="#000001"/>
</g>
<path d="M403.191 287.94H389.641V284.96H403.191C405.181 284.96 406.801 283.34 406.801 281.35V271.65C406.801 269.66 405.181 268.04 403.191 268.04H389.641V265.06H403.191C406.821 265.06 409.781 268.02 409.781 271.65V281.35C409.781 284.98 406.821 287.94 403.191 287.94Z" fill="#FFD200"/>
<g opacity="0.46">
<path d="M403.191 287.94H389.641V284.96H403.191C405.181 284.96 406.801 283.34 406.801 281.35V271.65C406.801 269.66 405.181 268.04 403.191 268.04H389.641V265.06H403.191C406.821 265.06 409.781 268.02 409.781 271.65V281.35C409.781 284.98 406.821 287.94 403.191 287.94Z" fill="#D9B504"/>
</g>
<path d="M407.61 358.85H360.25V364.94H407.61V358.85Z" fill="#0075C9"/>
<path d="M32.9902 358.01L27.2002 397.65H41.3402L50.9802 358.01H32.9902Z" fill="#E6E6E6"/>
<path d="M298.61 358.01L304.39 397.65H290.25L280.61 358.01H298.61Z" fill="#E6E6E6"/>
<path d="M4.86035 324.57L8.69035 344.87C11.2203 358.3 22.9603 368.03 36.6303 368.03H294.25C311.48 368.03 326.53 356.4 330.87 339.73L334.82 324.57H4.86035Z" fill="#A5A5A5"/>
<path d="M17.07 308.23L7.55002 315.25C1.39002 319.79 4.55002 329.56 12.2 329.64L324.43 333C333.68 333.1 338.5 322.02 332.12 315.33L325.36 308.23H17.07Z" fill="#E6E6E6"/>
<path d="M17.0702 308.23C17.0702 308.23 -15.3598 204.7 57.1802 198.27C116.58 193.01 251.45 196.36 298.37 197.75C313.93 198.21 328.08 207.23 334.17 221.21C341.5 238.02 344.13 265.51 325.36 308.22H17.0702V308.23Z" fill="#E6E6E6"/>
<path d="M358.29 305.52L352.32 397.65H358.29L370.97 305.52H358.29Z" fill="#0066FF"/>
<path d="M407.52 305.52L413.49 397.65H407.52L394.84 305.52H407.52Z" fill="#0066FF"/>
<path d="M413.48 293.73H352.32V308.23H382.9H413.48V293.73Z" fill="#0066FF"/>
<path d="M397.351 258.28H370.971V293.73H397.351V258.28Z" fill="#D9B504"/>
<g opacity="0.08">
<path d="M384.48 284.26C388.837 284.26 392.37 280.307 392.37 275.43C392.37 270.553 388.837 266.6 384.48 266.6C380.122 266.6 376.59 270.553 376.59 275.43C376.59 280.307 380.122 284.26 384.48 284.26Z" fill="#000001"/>
</g>
<path d="M374.66 258.69C374.66 258.69 372.62 251.88 378.07 251.2C383.52 250.52 391.01 251.88 388.22 243.71C385.43 235.54 381.75 237.31 385.84 228.04C389.93 218.78 400.69 235.26 404.64 226.54C408.59 217.82 414.04 220.82 419.49 225.11C424.94 229.4 426.03 242.75 415.27 244.79C404.51 246.83 402.33 249.16 400.15 255.15C397.97 261.14 386.94 258.68 386.94 258.68H374.68L374.66 258.69Z" fill="#E6E6E6" fill-opacity="0.37"/>
<path d="M182.13 89.4202C206.756 89.4202 226.72 69.4566 226.72 44.8302C226.72 20.2039 206.756 0.240234 182.13 0.240234C157.504 0.240234 137.54 20.2039 137.54 44.8302C137.54 69.4566 157.504 89.4202 182.13 89.4202Z" fill="#D9B504"/>
<path d="M182.13 74.8301C198.698 74.8301 212.13 61.3986 212.13 44.8301C212.13 28.2615 198.698 14.8301 182.13 14.8301C165.561 14.8301 152.13 28.2615 152.13 44.8301C152.13 61.3986 165.561 74.8301 182.13 74.8301Z" fill="#E6E6E6"/>
<path d="M190.42 52.8603C190.19 52.8603 189.96 52.7803 189.77 52.6203L181.47 45.5903C181.25 45.4003 181.12 45.1203 181.12 44.8303V24.0703C181.12 23.5203 181.57 23.0703 182.12 23.0703C182.67 23.0703 183.12 23.5203 183.12 24.0703V44.3703L191.06 51.1003C191.48 51.4603 191.53 52.0903 191.18 52.5103C190.98 52.7403 190.7 52.8603 190.42 52.8603Z" fill="#A5A5A5"/>
<path d="M49.6597 142.42C77.1248 142.42 99.3897 123.894 99.3897 101.04C99.3897 78.1866 77.1248 59.6602 49.6597 59.6602C22.1946 59.6602 -0.0703125 78.1866 -0.0703125 101.04C-0.0703125 123.894 22.1946 142.42 49.6597 142.42Z" fill="#0066FF"/>
<path d="M84.3297 119.94L102.04 150.05L72.8896 128.42L84.3297 119.94Z" fill="#0066FF"/>
<path d="M69.2396 107.18C72.6306 107.18 75.3796 104.431 75.3796 101.04C75.3796 97.6494 72.6306 94.9004 69.2396 94.9004C65.8486 94.9004 63.0996 97.6494 63.0996 101.04C63.0996 104.431 65.8486 107.18 69.2396 107.18Z" fill="white"/>
<path d="M49.5394 107.18C52.9304 107.18 55.6794 104.431 55.6794 101.04C55.6794 97.6494 52.9304 94.9004 49.5394 94.9004C46.1484 94.9004 43.3994 97.6494 43.3994 101.04C43.3994 104.431 46.1484 107.18 49.5394 107.18Z" fill="white"/>
<path d="M30.0697 107.18C33.4607 107.18 36.2097 104.431 36.2097 101.04C36.2097 97.6494 33.4607 94.9004 30.0697 94.9004C26.6787 94.9004 23.9297 97.6494 23.9297 101.04C23.9297 104.431 26.6787 107.18 30.0697 107.18Z" fill="white"/>
<path d="M90.1401 373.27C90.1401 373.27 91.0401 378.67 87.1701 381.28C83.3001 383.89 84.4601 388.46 88.6901 387.45C92.9201 386.44 99.7001 376.48 99.7001 376.48L96.1601 370.77L90.1401 373.27Z" fill="#FFB822"/>
<path d="M157.981 174.36C157.981 174.36 94.9005 167.68 97.2805 201.04C99.6605 234.41 135.021 305.52 135.021 305.52H212.481C212.481 305.52 282.041 213.99 253.441 184.99C224.841 155.99 207.551 182.23 157.981 174.36Z" fill="#D9B504"/>
<path d="M158.75 177.16C158.75 177.16 150.61 199.35 164.53 203.85C178.46 208.35 186.18 190.71 182.32 181.43C178.46 172.15 158.75 177.16 158.75 177.16Z" fill="#F4A28C"/>
<g opacity="0.08">
<path d="M135.511 218.49C135.511 218.49 127.831 281.69 167.111 287.94C206.391 294.18 224.531 288.34 224.531 288.34L212.491 305.52L133.931 303.27C133.931 303.27 110.141 251.28 108.911 245.08C107.681 238.88 135.521 218.49 135.521 218.49H135.511Z" fill="#000001"/>
</g>
<g opacity="0.08">
<path d="M158.75 177.16C158.75 177.16 150.61 199.35 164.53 203.85C178.46 208.35 186.18 190.71 182.32 181.43C178.46 172.15 158.75 177.16 158.75 177.16Z" fill="#000001"/>
</g>
<path d="M160.19 174.86C160.6 177.68 160.95 180.5 161.04 183.35C161.16 187.25 162.42 193.05 168.58 194.19C178.08 195.95 180.6 180.93 180.6 180.93C180.6 180.93 186.58 166.86 176.3 164.92C167.04 163.18 158.31 161.94 160.2 174.86H160.19Z" fill="#F4A28C"/>
<path d="M180 181.53C180 181.53 180.54 176.97 184.52 177.16C188.5 177.35 186.93 185.88 180 181.53Z" fill="#F4A28C"/>
<path d="M162.48 178.99C162.48 178.99 163.88 174.61 160.18 173.14C156.48 171.67 154.37 180.07 162.48 178.99Z" fill="#F4A28C"/>
<path d="M137.54 196.93C130.69 182.36 112.54 177.1 98.6703 185.29C79.7203 196.48 56.5103 220.52 58.0503 270.91C60.2703 343.64 162.73 293.41 162.73 293.41L158.92 282.5C158.92 282.5 83.0303 306.27 97.2103 264.49C109.09 229.5 151.59 226.82 137.53 196.94L137.54 196.93Z" fill="#F4A28C"/>
<path d="M137.51 303.28L212.49 305.52C212.49 305.52 265.34 310.43 265.98 329.39C266.49 344.39 202.65 335.66 175.95 331.35C162.66 329.21 149.07 329.28 135.86 331.91C115 336.06 93.7302 329.71 99.4302 372.3L88.2702 375.03C88.2702 375.03 58.8602 302.56 137.52 303.29L137.51 303.28Z" fill="#24285B"/>
<path d="M197.06 277.76H168.42C166.509 277.76 164.96 279.309 164.96 281.22V288.65C164.96 290.561 166.509 292.11 168.42 292.11H197.06C198.971 292.11 200.52 290.561 200.52 288.65V281.22C200.52 279.309 198.971 277.76 197.06 277.76Z" fill="#FFD200"/>
<path d="M158.92 282.48C158.92 282.48 162.28 271.33 166.03 271.22C169.78 271.11 175.32 271.01 174.43 275.18C173.54 279.35 166.57 277.24 167.32 280.11C168.07 282.98 175.78 281.82 179.64 284.72C183.5 287.62 184.09 295.43 162.74 293.4L158.93 282.49L158.92 282.48Z" fill="#F4A28C"/>
<path d="M208.691 194.5C212.001 178.75 228.461 169.45 243.831 174.22C264.851 180.74 292.971 198.79 303.081 248.18C317.681 319.47 206.391 294.18 206.391 294.18L207.591 282.68C207.591 282.68 286.911 288.33 263.491 250.94C243.871 219.63 201.901 226.81 208.691 194.5Z" fill="#F4A28C"/>
<path d="M207.58 282.68C207.58 282.68 201.74 272.6 198.07 273.36C194.4 274.12 188.98 275.29 190.81 279.15C192.64 283.01 198.94 279.34 198.86 282.31C198.78 285.28 191.02 285.93 187.93 289.63C184.84 293.33 186.07 301.08 206.37 294.18L207.57 282.68H207.58Z" fill="#F4A28C"/>
<path d="M176.311 324.57C176.311 324.57 163.78 336.14 167.95 340.96C172.13 345.78 179.991 332 179.991 332L176.301 324.57H176.311Z" fill="#FFB822"/>
<path d="M156.38 168.89C156.38 168.89 151.08 156.26 162.33 152.42C162.33 152.42 157.84 155.37 160.07 168.69L156.38 168.89Z" fill="#FFD200"/>
<path d="M186.03 174.39C186.03 174.39 192.05 157.86 177.82 152.11C177.82 152.11 187.29 159.45 182.37 173.88L186.03 174.39Z" fill="#FFD200"/>
<g opacity="0.08">
<path d="M156.38 168.89C156.38 168.89 151.08 156.26 162.33 152.42C162.33 152.42 157.84 155.37 160.07 168.69L156.38 168.89Z" fill="#000001"/>
</g>
<g opacity="0.08">
<path d="M186.03 174.39C186.03 174.39 192.05 157.86 177.82 152.11C177.82 152.11 187.29 159.45 182.37 173.88L186.03 174.39Z" fill="#000001"/>
</g>
<path d="M160.17 170.08C160.17 170.08 167.9 171.51 173 165.85C173 165.85 178.3 174.9 182.05 175.16C182.05 175.16 184.69 168.96 184.56 165.04C184.43 161.12 188.97 160.69 187.29 155.9C185.61 151.11 181.58 149.87 177.82 152.11C177.82 152.11 179.77 148.51 176.17 147.76C172.57 147.01 162.33 152.43 162.33 152.43C162.33 152.43 156.66 156.28 160.17 170.08Z" fill="#24285B"/>
<path d="M182.26 184.06C182.26 184.06 180.02 192.33 172.19 190.18V188.16C172.19 188.16 177.75 190.42 180.32 182.76L182.26 184.05V184.06Z" fill="#FFD200"/>
<path d="M153.131 169.98C151.991 174.05 151.761 180.41 160.931 181.43L160.071 168.7C159.991 167.48 158.981 166.54 157.761 166.54C155.621 166.54 153.711 167.93 153.131 169.98Z" fill="#FFD200"/>
<path d="M189.251 175.12C189.751 179.32 188.981 185.63 179.761 185.21L182.591 172.77C182.861 171.58 184.011 170.8 185.211 170.99C187.321 171.32 189.001 172.99 189.251 175.11V175.12Z" fill="#FFD200"/>
<path d="M171 191.35C172.298 191.35 173.35 190.298 173.35 189C173.35 187.703 172.298 186.65 171 186.65C169.703 186.65 168.65 187.703 168.65 189C168.65 190.298 169.703 191.35 171 191.35Z" fill="#FFD200"/>
<g opacity="0.46">
<path d="M171 191.35C172.298 191.35 173.35 190.298 173.35 189C173.35 187.703 172.298 186.65 171 186.65C169.703 186.65 168.65 187.703 168.65 189C168.65 190.298 169.703 191.35 171 191.35Z" fill="white"/>
</g>
<path d="M215.636 281.711L208.167 281.149L207.001 296.656L214.47 297.217L215.636 281.711Z" fill="#FFB822"/>
<g opacity="0.46">
<path d="M215.636 281.711L208.167 281.149L207.001 296.656L214.47 297.217L215.636 281.711Z" fill="white"/>
</g>
</g>
<defs>
<clipPath id="clip0_23_68">
<rect width="424" height="424" fill="white"/>
</clipPath>
</defs>
</svg>
