<svg id="_0065_gaming" xmlns="http://www.w3.org/2000/svg" viewBox="0 0 500 500" data-imageid="gaming-77-a58d0" imageName="Gaming" class="illustrations_image" style="width: 188px;"><defs><style>.cls-1_gaming-77-a58d0{fill:#fff;}.cls-2_gaming-77-a58d0{fill:#f4a28c;}.cls-3_gaming-77-a58d0{opacity:.46;}.cls-3_gaming-77-a58d0,.cls-4_gaming-77-a58d0,.cls-5_gaming-77-a58d0{fill:none;}.cls-6_gaming-77-a58d0{fill:#a5a5a5;}.cls-7_gaming-77-a58d0{fill:#e6e6e6;}.cls-4_gaming-77-a58d0{opacity:.03;}.cls-5_gaming-77-a58d0{opacity:.08;}.cls-8_gaming-77-a58d0{fill:#24285b;}.cls-9_gaming-77-a58d0{fill:#000001;}.cls-10_gaming-77-a58d0{fill:#ffd200;}.cls-11_gaming-77-a58d0{fill:#68e1fd;}</style></defs><g id="bg_gaming-77-a58d0"><g class="cls-4_gaming-77-a58d0"><ellipse class="cls-9_gaming-77-a58d0" cx="250" cy="438.1" rx="231.64" ry="23.66"/></g><path class="cls-10_gaming-77-a58d0" d="m446.19,325.94h-13.55v-2.98h13.55c1.99,0,3.61-1.62,3.61-3.61v-9.7c0-1.99-1.62-3.61-3.61-3.61h-13.55v-2.98h13.55c3.63,0,6.59,2.96,6.59,6.59v9.7c0,3.63-2.96,6.59-6.59,6.59Z"/><g class="cls-3_gaming-77-a58d0"><path class="cls-1_gaming-77-a58d0" d="m446.19,325.94h-13.55v-2.98h13.55c1.99,0,3.61-1.62,3.61-3.61v-9.7c0-1.99-1.62-3.61-3.61-3.61h-13.55v-2.98h13.55c3.63,0,6.59,2.96,6.59,6.59v9.7c0,3.63-2.96,6.59-6.59,6.59Z"/></g><rect class="cls-6_gaming-77-a58d0" x="403.25" y="396.85" width="47.36" height="6.09"/><polygon class="cls-7_gaming-77-a58d0" points="75.99 396.01 70.2 435.65 84.34 435.65 93.98 396.01 75.99 396.01"/><polygon class="cls-7_gaming-77-a58d0" points="341.61 396.01 347.39 435.65 333.25 435.65 323.61 396.01 341.61 396.01"/><path class="cls-6_gaming-77-a58d0" d="m47.86,362.57l3.83,20.3c2.53,13.43,14.27,23.16,27.94,23.16h257.62c17.23,0,32.28-11.63,36.62-28.3l3.95-15.16H47.86Z"/><path class="cls-7_gaming-77-a58d0" d="m60.07,346.23l-9.52,7.02c-6.16,4.54-3,14.31,4.65,14.39l312.23,3.36c9.25.1,14.07-10.98,7.69-17.67l-6.76-7.1H60.07Z"/><path class="cls-7_gaming-77-a58d0" d="m60.07,346.23s-32.43-103.53,40.11-109.96c59.4-5.26,194.27-1.91,241.19-.52,15.56.46,29.71,9.48,35.8,23.46,7.33,16.81,9.96,44.3-8.81,87.01H60.07Z"/><polygon class="cls-7_gaming-77-a58d0" points="401.29 343.52 395.32 435.65 401.29 435.65 413.97 343.52 401.29 343.52"/><polygon class="cls-7_gaming-77-a58d0" points="450.52 343.52 456.49 435.65 450.52 435.65 437.84 343.52 450.52 343.52"/><rect class="cls-7_gaming-77-a58d0" x="395.32" y="331.73" width="61.16" height="14.5"/><rect class="cls-10_gaming-77-a58d0" x="413.97" y="296.28" width="26.38" height="35.45"/><g class="cls-5_gaming-77-a58d0"><ellipse class="cls-9_gaming-77-a58d0" cx="427.48" cy="313.43" rx="7.89" ry="8.83"/></g><path class="cls-7_gaming-77-a58d0" d="m417.66,296.69s-2.04-6.81,3.41-7.49,12.94.68,10.15-7.49c-2.79-8.17-6.47-6.4-2.38-15.67,4.09-9.26,14.85,7.22,18.8-1.5,3.95-8.72,9.4-5.72,14.85-1.43,5.45,4.29,6.54,17.64-4.22,19.68-10.76,2.04-12.94,4.37-15.12,10.36-2.18,5.99-13.21,3.53-13.21,3.53h-12.26Z"/></g><g id="clock_gaming-77-a58d0"><circle class="cls-6_gaming-77-a58d0" cx="225.13" cy="82.83" r="44.59"/><circle class="cls-7_gaming-77-a58d0" cx="225.13" cy="82.83" r="30"/><path class="cls-6_gaming-77-a58d0" d="m233.42,90.86c-.23,0-.46-.08-.65-.24l-8.3-7.03c-.22-.19-.35-.47-.35-.76v-20.76c0-.55.45-1,1-1s1,.45,1,1v20.3l7.94,6.73c.42.36.47.99.12,1.41-.2.23-.48.35-.76.35Z"/></g><g id="speech_gaming-77-a58d0"><ellipse class="cls-10_gaming-77-a58d0" cx="92.66" cy="139.04" rx="49.73" ry="41.38"/><polygon class="cls-10_gaming-77-a58d0" points="127.33 157.94 145.04 188.05 115.89 166.42 127.33 157.94"/><circle class="cls-8_gaming-77-a58d0" cx="112.24" cy="139.04" r="6.14"/><circle class="cls-8_gaming-77-a58d0" cx="92.54" cy="139.04" r="6.14"/><circle class="cls-8_gaming-77-a58d0" cx="73.07" cy="139.04" r="6.14"/></g><g id="gamer_gaming-77-a58d0"><path class="cls-11_gaming-77-a58d0 targetColor" d="m133.14,411.27s.9,5.4-2.97,8.01-2.71,7.18,1.52,6.17c4.23-1.01,11.01-10.97,11.01-10.97l-3.54-5.71-6.02,2.5Z" style="fill: rgb(255, 184, 34);"/><path class="cls-11_gaming-77-a58d0 targetColor" d="m200.98,212.36s-63.08-6.68-60.7,26.68c2.38,33.37,37.74,104.48,37.74,104.48h77.46s69.56-91.53,40.96-120.53c-28.6-29-45.89-2.76-95.46-10.63Z" style="fill: rgb(255, 184, 34);"/><path class="cls-2_gaming-77-a58d0" d="m201.75,215.16s-8.14,22.19,5.78,26.69c13.93,4.5,21.65-13.14,17.79-22.42-3.86-9.28-23.57-4.27-23.57-4.27Z"/><g class="cls-5_gaming-77-a58d0"><path class="cls-9_gaming-77-a58d0" d="m178.51,256.49s-7.68,63.2,31.6,69.45c39.28,6.24,57.42.4,57.42.4l-12.04,17.18-78.56-2.25s-23.79-51.99-25.02-58.19c-1.23-6.2,26.61-26.59,26.61-26.59Z"/></g><g class="cls-5_gaming-77-a58d0"><path class="cls-9_gaming-77-a58d0" d="m201.75,215.16s-8.14,22.19,5.78,26.69c13.93,4.5,21.65-13.14,17.79-22.42-3.86-9.28-23.57-4.27-23.57-4.27Z"/></g><path class="cls-2_gaming-77-a58d0" d="m203.19,212.86c.41,2.82.76,5.64.85,8.49.12,3.9,1.38,9.7,7.54,10.84,9.5,1.76,12.02-13.26,12.02-13.26,0,0,5.98-14.07-4.3-16.01-9.26-1.74-17.99-2.98-16.1,9.94Z"/><path class="cls-2_gaming-77-a58d0" d="m223,219.53s.54-4.56,4.52-4.37c3.98.19,2.41,8.72-4.52,4.37Z"/><path class="cls-2_gaming-77-a58d0" d="m205.48,216.99s1.4-4.38-2.3-5.85c-3.7-1.47-5.81,6.93,2.3,5.85Z"/><path class="cls-2_gaming-77-a58d0" d="m180.54,234.93c-6.85-14.57-25-19.83-38.87-11.64-18.95,11.19-42.16,35.23-40.62,85.62,2.22,72.73,104.68,22.5,104.68,22.5l-3.81-10.91s-75.89,23.77-61.71-18.01c11.88-34.99,54.38-37.67,40.32-67.55Z"/><path class="cls-8_gaming-77-a58d0" d="m180.51,341.28l74.98,2.24s52.85,4.91,53.49,23.87c.51,15-63.33,6.27-90.03,1.96-13.29-2.14-26.88-2.07-40.09.56-20.86,4.15-42.13-2.2-36.43,40.39l-11.16,2.73s-29.41-72.47,49.25-71.74Z"/><rect class="cls-10_gaming-77-a58d0" x="207.96" y="315.76" width="35.56" height="14.35" rx="3.46" ry="3.46"/><path class="cls-2_gaming-77-a58d0" d="m201.92,320.48s3.36-11.15,7.11-11.26,9.29-.21,8.4,3.96-7.86,2.06-7.11,4.93c.75,2.87,8.46,1.71,12.32,4.61s4.45,10.71-16.9,8.68l-3.81-10.91Z"/><path class="cls-2_gaming-77-a58d0" d="m251.69,232.5c3.31-15.75,19.77-25.05,35.14-20.28,21.02,6.52,49.14,24.57,59.25,73.96,14.6,71.29-96.69,46-96.69,46l1.2-11.5s79.32,5.65,55.9-31.74c-19.62-31.31-61.59-24.13-54.8-56.44Z"/><path class="cls-2_gaming-77-a58d0" d="m250.58,320.68s-5.84-10.08-9.51-9.32c-3.67.76-9.09,1.93-7.26,5.79s8.13.19,8.05,3.16-7.84,3.62-10.93,7.32c-3.09,3.7-1.86,11.45,18.44,4.55l1.2-11.5Z"/><path class="cls-11_gaming-77-a58d0 targetColor" d="m219.31,362.57s-12.53,11.57-8.36,16.39c4.18,4.82,12.04-8.96,12.04-8.96l-3.69-7.43Z" style="fill: rgb(255, 184, 34);"/><path class="cls-10_gaming-77-a58d0" d="m199.38,206.89s-5.3-12.63,5.95-16.47c0,0-4.49,2.95-2.26,16.27l-3.69.2Z"/><path class="cls-10_gaming-77-a58d0" d="m229.03,212.39s6.02-16.53-8.21-22.28c0,0,9.47,7.34,4.55,21.77l3.66.51Z"/><g class="cls-5_gaming-77-a58d0"><path class="cls-9_gaming-77-a58d0" d="m199.38,206.89s-5.3-12.63,5.95-16.47c0,0-4.49,2.95-2.26,16.27l-3.69.2Z"/></g><g class="cls-5_gaming-77-a58d0"><path class="cls-9_gaming-77-a58d0" d="m229.03,212.39s6.02-16.53-8.21-22.28c0,0,9.47,7.34,4.55,21.77l3.66.51Z"/></g><path class="cls-8_gaming-77-a58d0" d="m203.17,208.08s7.73,1.43,12.83-4.23c0,0,5.3,9.05,9.05,9.31,0,0,2.64-6.2,2.51-10.12-.13-3.92,4.41-4.35,2.73-9.14-1.68-4.79-5.71-6.03-9.47-3.79,0,0,1.95-3.6-1.65-4.35s-13.84,4.67-13.84,4.67c0,0-5.67,3.85-2.16,17.65Z"/><path class="cls-10_gaming-77-a58d0" d="m225.26,222.06s-2.24,8.27-10.07,6.12v-2.02s5.56,2.26,8.13-5.4l1.94,1.29Z"/><path class="cls-10_gaming-77-a58d0" d="m196.13,207.98c-1.14,4.07-1.37,10.43,7.8,11.45l-.86-12.73c-.08-1.22-1.09-2.16-2.31-2.16h0c-2.14,0-4.05,1.39-4.63,3.44Z"/><path class="cls-10_gaming-77-a58d0" d="m232.25,213.12c.5,4.2-.27,10.51-9.49,10.09l2.83-12.44c.27-1.19,1.42-1.97,2.62-1.78h0c2.11.33,3.79,2,4.04,4.12Z"/><circle class="cls-10_gaming-77-a58d0" cx="214" cy="227" r="2.35"/><g class="cls-3_gaming-77-a58d0"><circle class="cls-1_gaming-77-a58d0" cx="214" cy="227" r="2.35"/></g><rect class="cls-11_gaming-77-a58d0 targetColor" x="250.58" y="319.4" width="7.49" height="15.55" transform="translate(25.24 -18.14) rotate(4.3)" style="fill: rgb(255, 184, 34);"/><g class="cls-3_gaming-77-a58d0"><rect class="cls-1_gaming-77-a58d0" x="250.58" y="319.4" width="7.49" height="15.55" transform="translate(25.24 -18.14) rotate(4.3)"/></g></g><g id="frame_gaming-77-a58d0" class="cls-4_gaming-77-a58d0"><rect class="cls-9_gaming-77-a58d0" x="326.01" y="93.02" width="76.35" height="99.94"/></g></svg>