<svg version="1.1" id="Layer_1" xmlns="http://www.w3.org/2000/svg" xmlns:xlink="http://www.w3.org/1999/xlink" x="0px" y="0px" viewBox="0 0 500 500" style="width: 188px;" xml:space="preserve" data-imageid="gaming-91" imageName="Gaming" class="illustrations_image">
<style type="text/css">
	.st0_gaming-91{fill:#AAACF9;}
	.st1_gaming-91{opacity:0.32;fill:url(#SVGID_1_);enable-background:new    ;}
	.st2_gaming-91{opacity:0.32;fill:url(#SVGID_00000144300292574971609630000002077124570522711730_);enable-background:new    ;}
	.st3_gaming-91{opacity:0.32;fill:url(#SVGID_00000160896418281925158150000005986286614985475991_);enable-background:new    ;}
	.st4_gaming-91{opacity:0.32;fill:url(#SVGID_00000150820314307140101320000009395809828499150271_);enable-background:new    ;}
	.st5_gaming-91{opacity:0.32;fill:url(#SVGID_00000137131946164593818870000006715303794736071094_);enable-background:new    ;}
	.st6_gaming-91{fill:#68E1FD;}
	.st7_gaming-91{fill:#505A63;}
	.st8_gaming-91{fill:#090502;}
	.st9_gaming-91{opacity:0.52;fill:#505A63;enable-background:new    ;}
	.st10_gaming-91{fill:#F62435;}
	.st11_gaming-91{fill:#F4BD21;}
	.st12_gaming-91{fill:#3AD84A;}
	.st13_gaming-91{fill:#FFFFFF;}
	.st14_gaming-91{fill:#FFE4D7;}
	.st15_gaming-91{fill:#F7734F;}
</style>
<path id="Base_gaming-91" class="st0_gaming-91" d="M275.4,135.5l187.5,109.1c5.7,3.4,7.6,10.7,4.2,16.4c-1.1,1.8-2.6,3.3-4.4,4.3L233.2,393.8&#10;&#9;c-5.6,3.2-12.5,3.2-18.2,0.2L38.7,299.1c-7-3.8-9.6-12.5-5.8-19.5c1.3-2.3,3.1-4.3,5.4-5.6L275.4,135.5z"/>
<g id="Shadow_gaming-91">
	
		<linearGradient id="SVGID_1_-gaming-91" gradientUnits="userSpaceOnUse" x1="130.7793" y1="-2012.551" x2="168.2293" y2="-2038.9309" gradientTransform="matrix(1 0 0 1 0 2273.8401)">
		<stop offset="0" style="stop-color:#FFFFFF;stop-opacity:0"/>
		<stop offset="0.98" style="stop-color:#090502"/>
	</linearGradient>
	<path class="st1_gaming-91" d="M191.9,206.9l-71.4,44.5l14.8,17.1l77.7-47.9C204.9,215.1,198.9,213.6,191.9,206.9z"/>
	
		<linearGradient id="SVGID_00000153673159827380855830000015434874929728254646_-gaming-91" gradientUnits="userSpaceOnUse" x1="238.5215" y1="-2080.5479" x2="264.1315" y2="-2098.5679" gradientTransform="matrix(1 0 0 1 0 2273.8401)">
		<stop offset="0" style="stop-color:#FFFFFF;stop-opacity:0"/>
		<stop offset="0.98" style="stop-color:#090502"/>
	</linearGradient>
	<path style="opacity:0.32;fill:url(#SVGID_00000153673159827380855830000015434874929728254646_);enable-background:new    ;" d="&#10;&#9;&#9;M276.6,153.5l-48.1,28.9l23.5,13.8l45.6-26.5C289.6,164.2,283.6,160.2,276.6,153.5z"/>
	
		<linearGradient id="SVGID_00000043444290532085188940000014135376874134720143_-gaming-91" gradientUnits="userSpaceOnUse" x1="163.2209" y1="-1895.5992" x2="217.0709" y2="-1953.6891" gradientTransform="matrix(1 0 0 1 0 2273.8401)">
		<stop offset="0" style="stop-color:#FFFFFF;stop-opacity:0"/>
		<stop offset="0.98" style="stop-color:#090502"/>
	</linearGradient>
	<path style="opacity:0.32;fill:url(#SVGID_00000043444290532085188940000014135376874134720143_);enable-background:new    ;" d="&#10;&#9;&#9;M195.5,284.9l-69.3,43.6l90.2,57.4l59.2-39.2C267.6,341.2,202.4,291.6,195.5,284.9z"/>
	
		<linearGradient id="SVGID_00000040559386744658478180000002015542314778920872_-gaming-91" gradientUnits="userSpaceOnUse" x1="78.7183" y1="-1949.9106" x2="104.3283" y2="-1967.9307" gradientTransform="matrix(1 0 0 1 0 2273.8401)">
		<stop offset="0" style="stop-color:#FFFFFF;stop-opacity:0"/>
		<stop offset="0.98" style="stop-color:#090502"/>
	</linearGradient>
	<path style="opacity:0.32;fill:url(#SVGID_00000040559386744658478180000002015542314778920872_);enable-background:new    ;" d="&#10;&#9;&#9;M116.9,284.1L68.8,313l23.5,13.8l45.6-26.5C129.8,294.9,123.8,290.9,116.9,284.1z"/>
	
		<linearGradient id="SVGID_00000029023438703814834420000010854537749571106977_-gaming-91" gradientUnits="userSpaceOnUse" x1="306.1207" y1="-1978.4495" x2="331.9807" y2="-2012.8096" gradientTransform="matrix(1 0 0 1 0 2273.8401)">
		<stop offset="0" style="stop-color:#FFFFFF;stop-opacity:0"/>
		<stop offset="0.98" style="stop-color:#090502"/>
	</linearGradient>
	<path style="opacity:0.32;fill:url(#SVGID_00000029023438703814834420000010854537749571106977_);enable-background:new    ;" d="&#10;&#9;&#9;M319.4,244.3l-58.9,28.5l65.8,44.9l45.6-26.5C363.9,285.8,326.3,251,319.4,244.3z"/>
</g>
<g id="Controller_gaming-91">
	<path class="st6_gaming-91 targetColor" d="M308.5,206.1c-13.5-3.8-30.9,5.2-42.7,10.6c-17.5,8.2-34.5,17.5-50.9,27.8c-13.7,8.4-23.2,17-26.6,33.4&#10;&#9;&#9;c-0.6,7.3-0.9,14.6,0,16.8c1.9,4.8,55,52,81.6,54.6s-9.8-62-6.6-67.2s32.4-21.4,36.8-19.9s64.6,36.9,69.4,29.5&#10;&#9;&#9;C384.7,268,335.8,213.8,308.5,206.1z" style="fill: rgb(255, 20, 147);"/>
	<ellipse class="st7_gaming-91" cx="303.6" cy="226.1" rx="20.3" ry="14.7"/>
	<path class="st8_gaming-91" d="M289.9,223.7l19.6,11.4c0,0,8.5-5.4,8.3-5.7s-19.2-10.8-19.2-10.8L289.9,223.7z"/>
	<path class="st8_gaming-91" d="M288.9,231.1c0.5,0.1,9.4,5.1,9.4,5.1l21.1-12.9l-9.6-5.8L288.9,231.1"/>
	<polygon class="st8_gaming-91" points="289.9,221.8 289.9,223.7 292.9,223.1 &#9;"/>
	<polygon class="st8_gaming-91" points="319.5,221.4 319.5,223.4 317.1,222.9 &#9;"/>
	<path class="st9_gaming-91" d="M372.1,277.4c0,0-2.1,11-11.6,9s-52.2-36-60.3-34.1s-39.7,20.5-39.7,20.5l2.9,12.6l39.4-20&#10;&#9;&#9;c0,0,45.5,30.3,60.9,29.2S372.1,277.4,372.1,277.4z"/>
	<path class="st7_gaming-91" d="M289.9,221.8l19.6,11.4c0,0,8.5-5.4,8.3-5.7s-19.2-10.8-19.2-10.8L289.9,221.8z"/>
	<path class="st6_gaming-91 targetColor" d="M372.1,277.4c0,0-2.1,11-11.6,9s-52.2-36-60.3-34.1s-39.7,20.5-39.7,20.5l2.9,12.6l39.4-20&#10;&#9;&#9;c0,0,45.5,30.3,60.9,29.2S372.1,277.4,372.1,277.4z" style="fill: rgb(255, 20, 147);"/>
	<path class="st6_gaming-91 targetColor" d="M274,341.3c-4-0.3-7.8-2-11.3-3.9c-4.5-2.4-9-4.9-13.5-7.4c-9.7-5.3-18.9-11.4-27.7-18&#10;&#9;&#9;c-7-5.3-14.1-10.4-20.9-15.8c-4.7-3.8-9.4-8-12.7-13.2c-0.3,5.3-0.3,10,0.3,11.6c1.8,4.8,55,52,81.6,54.6c6.8,0.7,9.5-3,9.8-9&#10;&#9;&#9;C277.8,341.1,275.9,341.4,274,341.3z" style="fill: rgb(255, 20, 147);"/>
	<path class="st9_gaming-91" d="M274,341.3c-4-0.3-7.8-2-11.3-3.9c-4.5-2.4-9-4.9-13.5-7.4c-9.7-5.3-18.9-11.4-27.7-18&#10;&#9;&#9;c-7-5.3-14.1-10.4-20.9-15.8c-4.7-3.8-9.4-8-12.7-13.2c-0.3,5.3-0.3,10,0.3,11.6c1.8,4.8,55,52,81.6,54.6c6.8,0.7,9.5-3,9.8-9&#10;&#9;&#9;C277.8,341.1,275.9,341.4,274,341.3z"/>
	<ellipse class="st7_gaming-91" cx="224.9" cy="273" rx="21.9" ry="15.8"/>
	<ellipse class="st7_gaming-91" cx="260.5" cy="258.9" rx="10.5" ry="5.9"/>
	<path class="st7_gaming-91" d="M251,261.3c0,0,2.1-4.5,5.4-5c3.3-0.5,9.8-1.6,12.2,0.5s2.2,3.1,2.2,3.1c-2,3-5.3,4.8-8.9,4.8&#10;&#9;&#9;C255.4,265.1,251.7,262.6,251,261.3z"/>
	<ellipse class="st8_gaming-91" cx="260.9" cy="257.1" rx="6.7" ry="5"/>
	<ellipse class="st7_gaming-91" cx="260.5" cy="253" rx="7.7" ry="5.5"/>
	<path class="st7_gaming-91" d="M252.9,253.2c0.2,2.9,3.6,5.2,7.7,5.2s7.7-2.4,7.7-5.5c0-0.4-0.1-0.8-0.2-1.2&#10;&#9;&#9;C264.6,255.9,258,255.3,252.9,253.2z"/>
	<ellipse class="st7_gaming-91" cx="281.5" cy="250.2" rx="10.5" ry="5.9"/>
	<path class="st7_gaming-91" d="M271.9,252.7c0,0,2-4.5,5.4-5s9.8-1.6,12.2,0.5s2.2,3.1,2.2,3.1c-2,3-5.3,4.8-8.9,4.8&#10;&#9;&#9;C276.4,256.4,272.7,254,271.9,252.7z"/>
	<ellipse class="st8_gaming-91" cx="281.8" cy="248.5" rx="6.7" ry="5"/>
	<ellipse class="st7_gaming-91" cx="281.5" cy="244.3" rx="7.7" ry="5.5"/>
	<path class="st7_gaming-91" d="M273.8,244.6c0.2,2.9,3.6,5.2,7.7,5.2s7.7-2.4,7.7-5.5c0-0.4-0.1-0.8-0.2-1.2&#10;&#9;&#9;C285.6,247.2,279,246.6,273.8,244.6z"/>
	<path class="st7_gaming-91" d="M238.3,243l7.8-4.6c0.9-0.5,2-0.5,2.9,0l0.1,0.1c1.3,0.8,1.7,2.5,0.9,3.8c-0.3,0.4-0.6,0.7-1,0.9l-7.9,4.5&#10;&#9;&#9;c-0.9,0.5-2,0.5-2.8-0.1l0,0c-1.3-0.8-1.6-2.5-0.8-3.8c0,0,0,0,0,0C237.7,243.5,238,243.2,238.3,243z"/>
	<path class="st7_gaming-91" d="M257.7,231.4l7.8-4.6c0.9-0.5,2-0.5,2.9,0l0.1,0.1c1.3,0.8,1.7,2.5,0.9,3.8c0,0,0,0,0,0&#10;&#9;&#9;c-0.2,0.4-0.6,0.7-1,0.9l-7.9,4.5c-0.9,0.5-2,0.5-2.8-0.1l0,0c-1.3-0.8-1.6-2.5-0.8-3.8C257.1,231.9,257.4,231.6,257.7,231.4z"/>
	<polygon class="st8_gaming-91" points="288.9,231.1 288.9,229.1 291.7,229.5 290.5,230.6 &#9;"/>
	<path class="st7_gaming-91" d="M288.9,229.1c0.5,0.1,9.4,5.1,9.4,5.1l21.1-12.8l-9.6-5.8L288.9,229.1"/>
	<ellipse class="st8_gaming-91" cx="216.4" cy="279.6" rx="4.9" ry="2.9"/>
	<polyline class="st8_gaming-91" points="211.5,279.6 211.5,276 221.2,276 221.2,279.6 &#9;"/>
	<ellipse class="st10_gaming-91" cx="216.4" cy="276" rx="4.9" ry="2.9"/>
	<ellipse class="st8_gaming-91" cx="217.8" cy="268.5" rx="4.9" ry="2.9"/>
	<polyline class="st8_gaming-91" points="212.9,268.5 212.9,265 222.6,265 222.6,268.5 &#9;"/>
	<ellipse class="st11_gaming-91" cx="217.8" cy="265" rx="4.9" ry="2.9"/>
	<ellipse class="st8_gaming-91" cx="232.8" cy="268.5" rx="4.9" ry="2.9"/>
	<polyline class="st8_gaming-91" points="227.9,268.5 227.9,265 237.6,265 237.6,268.5 &#9;"/>
	<ellipse class="st6_gaming-91 targetColor" cx="232.8" cy="265" rx="4.9" ry="2.9" style="fill: rgb(255, 20, 147);"/>
	<ellipse class="st8_gaming-91" cx="231.2" cy="278.4" rx="4.9" ry="2.9"/>
	<polyline class="st8_gaming-91" points="226.3,278.4 226.3,274.9 236,274.9 236,278.4 &#9;"/>
	<ellipse class="st12_gaming-91" cx="231.2" cy="274.9" rx="4.9" ry="2.9"/>
	<polygon class="st8_gaming-91" points="317.8,227.5 317.8,229.4 316.5,230.3 316.1,228.9 &#9;"/>
</g>
<g id="Monitor_gaming-91">
	<path class="st8_gaming-91" d="M200,211.7l11.5,5.5c1.3,0.6,1.9,2.2,1.2,3.5c-0.2,0.5-0.6,0.9-1,1.1l-27.1,15.9c-1.2,0.8-2.8,0.4-3.6-0.9&#10;&#9;&#9;l-6.6-10.3"/>
	<path class="st6_gaming-91 targetColor" d="M143,182.1l91.4-52.6c2-1.1,4.5-0.5,5.6,1.5c0.4,0.6,0.5,1.4,0.6,2.1v54.8c0,1.2-0.6,2.4-1.7,3L141.5,247&#10;&#9;&#9;c-1,0.6-2.4,0.3-3-0.8c-0.2-0.3-0.3-0.7-0.3-1.1v-54.5C138.2,187,140,183.8,143,182.1z" style="fill: rgb(255, 20, 147);"/>
	<path class="st13_gaming-91" d="M234.3,133.6l-88.6,51c-1.9,1.1-3.1,3.2-3.1,5.4V231c0,1.2,1,2.2,2.2,2.2c0.4,0,0.8-0.1,1.1-0.3l90.4-51.9&#10;&#9;&#9;c0.7-0.4,1.1-1.1,1.1-1.9v-43.8c0-1.2-0.9-2.1-2.1-2.1C235,133.3,234.6,133.4,234.3,133.6L234.3,133.6z"/>
	<ellipse transform="matrix(0.1891 -0.982 0.982 0.1891 -44.9249 363.1889)" class="st7_gaming-91" cx="197.4" cy="208.8" rx="2.2" ry="1.9"/>
	<ellipse class="st7_gaming-91" cx="149.3" cy="185.8" rx="1" ry="1"/>
	<ellipse class="st6_gaming-91 targetColor" cx="152.4" cy="184.2" rx="1" ry="1" style="fill: rgb(255, 20, 147);"/>
</g>
<g id="Joystick_gaming-91">
	<path class="st7_gaming-91" d="M90.9,291.4c0.3,0.5,23.5,13.5,23.5,13.5l16.1-9l7.3-4.2l-9-5.2l-14.4-8.4L90.9,291.4z"/>
	<polygon class="st8_gaming-91" points="114.5,304.8 114.5,313.9 137.8,300.3 137.8,291.6 &#9;"/>
	<polygon class="st8_gaming-91" points="90.9,291.4 90.9,300.3 114.5,313.9 114.5,304.8 &#9;"/>
	<ellipse class="st8_gaming-91" cx="115" cy="291.4" rx="9" ry="5"/>
	<path class="st7_gaming-91" d="M115.1,263.3L115.1,263.3c1,0,1.7,0.8,1.7,1.7l0,0v26.1c0,1-0.8,1.7-1.7,1.7l0,0c-1,0-1.7-0.8-1.7-1.7V265&#10;&#9;&#9;C113.4,264,114.2,263.3,115.1,263.3C115.1,263.3,115.1,263.3,115.1,263.3z"/>
	<circle class="st10_gaming-91" cx="115.1" cy="261.5" r="9.4"/>
	<path class="st10_gaming-91" d="M115.4,252.1c2.5,2.3,3.9,5.5,3.9,8.9c0.3,4.5-2.8,8.5-7.1,9.4c4.9,1.6,10.2-1.1,11.8-6&#10;&#9;&#9;c1.6-4.9-1.1-10.2-6-11.8C117.2,252.3,116.3,252.2,115.4,252.1L115.4,252.1z"/>
	<path class="st13_gaming-91" d="M111,256.7c-1.9,1.6-2.9,4.1-2.5,6.6c-0.8-1.7-1-3.7-0.4-5.6C109.1,254.4,111,256.7,111,256.7z"/>
</g>
<g id="Plant_gaming-91">
	<ellipse class="st6_gaming-91 targetColor" cx="281.4" cy="161.5" rx="19.3" ry="13.6" style="fill: rgb(255, 20, 147);"/>
	<ellipse class="st7_gaming-91" cx="281.4" cy="153.5" rx="14.5" ry="5.9"/>
	<path class="st12_gaming-91" d="M282.4,153.6c1.2-1.6,2.3-3.3,3.5-5.1c1.5-2.4,3-4.9,4.3-7.4c1.2-2.2,2.3-4.6,3.1-7c0.9-2.6,1.7-5.3,2.3-8&#10;&#9;&#9;c0.1-0.7,0.3-1.4,0.4-2.2c0-0.3,0.1-0.3,0.1-0.2V123c0.1-1.5,0.2-2.9,0.2-4.4c0.1-5.1-0.9-10.1-2.9-14.8&#10;&#9;&#9;c-5.2,7.6-8.7,16.2-10.3,25.3c-0.1,0.6-0.2,1.1-0.3,1.6c-0.1,0.8-0.1,1-0.2,1.4l-0.1,1.4c-0.1,0.7-0.1,1.4-0.2,2.1&#10;&#9;&#9;c-0.2,2.7-0.3,5.4-0.3,8C282,146.9,282.1,150.3,282.4,153.6z M288.6,113.6l1.1-1.2l0,0c-0.1,0.3-0.1,0.7-0.1,1&#10;&#9;&#9;C289.2,113.4,288.9,113.5,288.6,113.6L288.6,113.6z"/>
	<path class="st12_gaming-91" d="M282.8,153.9c0.1-2,0.1-4,0.1-6.2c0-2.8-0.1-5.7-0.4-8.5c-0.2-2.6-0.6-5.1-1.2-7.6c-0.6-2.7-1.4-5.4-2.4-8&#10;&#9;&#9;c-0.3-0.7-0.5-1.4-0.8-2c-0.1-0.3-0.1-0.3-0.1-0.2l-0.3-0.6c-0.7-1.3-1.4-2.6-2.2-3.8c-2.7-4.3-6.2-8-10.4-10.9&#10;&#9;&#9;c-0.3,9.2,1.4,18.4,5,26.8c0.2,0.5,0.4,1,0.6,1.5l0.6,1.3l0.6,1.2c0.3,0.6,0.6,1.2,1,1.9c1.2,2.4,2.6,4.7,4.1,6.9&#10;&#9;&#9;C278.8,148.5,280.7,151.2,282.8,153.9z M266.3,116.9c0.1-0.5,0.2-1.1,0.3-1.6l0,0c0.1,0.3,0.3,0.6,0.5,0.9&#10;&#9;&#9;C266.8,116.4,266.6,116.6,266.3,116.9L266.3,116.9z"/>
	<path class="st12_gaming-91" d="M282.8,154.9c-0.6-1.1-1.2-2.2-1.9-3.4c-0.9-1.5-1.9-3-3-4.5c-0.9-1.3-2-2.6-3.1-3.7&#10;&#9;&#9;c-1.2-1.3-2.5-2.4-3.9-3.5l-1.1-0.8c-0.2-0.1-0.1-0.1-0.1-0.1l-0.3-0.2c-0.8-0.5-1.6-1-2.4-1.4c-2.8-1.5-5.9-2.3-9.1-2.6&#10;&#9;&#9;c2.8,5.1,6.7,9.5,11.4,12.9l0.8,0.6l0.7,0.5l0.7,0.5l1.1,0.7c1.5,0.9,2.9,1.7,4.4,2.4C278.9,153.2,280.9,154.1,282.8,154.9z&#10;&#9;&#9; M262.1,140.2c-0.1-0.3-0.2-0.6-0.4-0.9l0,0c0.2,0.1,0.4,0.3,0.6,0.3C262.2,139.8,262.1,140,262.1,140.2L262.1,140.2z"/>
	<path class="st12_gaming-91" d="M282.4,153.6c1.2-1.6,2.3-3.3,3.5-5.1c1.5-2.4,3-4.9,4.3-7.4c1.2-2.2,2.3-4.6,3.1-7c0.9-2.6,1.7-5.3,2.3-8&#10;&#9;&#9;c0.1-0.7,0.3-1.4,0.4-2.2c0-0.3,0.1-0.3,0.1-0.2V123c0.1-1.5,0.2-2.9,0.2-4.4c0.1-5.1-0.9-10.1-2.9-14.8&#10;&#9;&#9;c-5.2,7.6-8.7,16.2-10.3,25.3c-0.1,0.6-0.2,1.1-0.3,1.6c-0.1,0.8-0.1,1-0.2,1.4l-0.1,1.4c-0.1,0.7-0.1,1.4-0.2,2.1&#10;&#9;&#9;c-0.2,2.7-0.3,5.4-0.3,8C282,146.9,282.1,150.3,282.4,153.6z"/>
	<path class="st12_gaming-91" d="M282.8,153.9c0.1-2,0.1-4,0.1-6.2c0-2.8-0.1-5.7-0.4-8.5c-0.2-2.6-0.6-5.1-1.2-7.6c-0.6-2.7-1.4-5.4-2.4-8&#10;&#9;&#9;c-0.3-0.7-0.5-1.4-0.8-2c-0.1-0.3-0.1-0.3-0.1-0.2l-0.3-0.6c-0.7-1.3-1.4-2.6-2.2-3.8c-2.7-4.3-6.2-8-10.4-10.9&#10;&#9;&#9;c-0.3,9.2,1.4,18.4,5,26.8c0.2,0.5,0.4,1,0.6,1.5l0.6,1.3l0.6,1.2c0.3,0.6,0.6,1.2,1,1.9c1.2,2.4,2.6,4.7,4.1,6.9&#10;&#9;&#9;C278.8,148.5,280.7,151.2,282.8,153.9z"/>
	<path class="st12_gaming-91" d="M282.8,154.9c-0.6-1.1-1.2-2.2-1.9-3.4c-0.9-1.5-1.9-3-3-4.5c-0.9-1.3-2-2.6-3.1-3.7&#10;&#9;&#9;c-1.2-1.3-2.5-2.4-3.9-3.5l-1.1-0.8c-0.2-0.1-0.1-0.1-0.1-0.1l-0.3-0.2c-0.8-0.5-1.6-1-2.4-1.4c-2.8-1.5-5.9-2.3-9.1-2.6&#10;&#9;&#9;c2.8,5.1,6.7,9.5,11.4,12.9l0.8,0.6l0.7,0.5l0.7,0.5l1.1,0.7c1.5,0.9,2.9,1.7,4.4,2.4C278.9,153.2,280.9,154.1,282.8,154.9z"/>
</g>
<g id="Character_gaming-91">
	<polygon class="st14_gaming-91" points="303.9,203.9 305.6,207.1 309.9,204.8 308.9,201.6 &#9;"/>
	<path class="st15_gaming-91" d="M311.8,201.3c0,0,10,7.2,12.5,14.2s-3.6,14.7-3.6,14.7"/>
	<polyline class="st8_gaming-91" points="322.7,306.2 327.7,303.8 325.7,298.5 321.8,300.1 &#9;"/>
	<path class="st8_gaming-91" d="M329.2,292.3h-5.6c-0.1,2.3-0.6,5.1-2.6,6c-0.8,0.5-3.8,1.4-4.8,1s-4.1-1.1-4.5-0.9s-1.8,1.1,1.1,3.7&#10;&#9;&#9;s9.1,4.3,10,4s-1-5.5,1.3-4.7c2.5,0.9,1.1,6.5,1.5,7c0.8,0.5,1.6,0.8,2.5,1c0.7-0.3,1.3-0.7,1.9-1.1&#10;&#9;&#9;C330,303.1,329.6,297.7,329.2,292.3z"/>
	<polyline class="st8_gaming-91" points="293,318.7 297.9,316.1 295.6,310.9 291.8,312.7 &#9;"/>
	<path class="st8_gaming-91" d="M299.5,302.8l-6.3,2.1c0,3.6-1.1,6.2-4.8,7.1c-1.6,0.4-2.8-0.1-4.3-0.4c-0.8-0.2-1.7,0.1-2.2,0.8&#10;&#9;&#9;c-0.8,1.1,0.2,2.1,1,2.9c3,2.5,9.3,3.9,10.2,3.6s-1.3-5.4,1.1-4.7c2.6,0.7,1.4,6.5,1.8,6.9c0.8,0.4,1.7,0.7,2.6,0.9&#10;&#9;&#9;c0.6-0.4,1.2-0.8,1.8-1.2C300.2,315.3,300.2,308.2,299.5,302.8z"/>
	<path class="st15_gaming-91" d="M318.4,224.4c2.8,10.7,4.9,21.6,6.3,32.5c2.2,17.6,7.3,38.9,6.8,39.5s-4.4,5.2-13.6,2.9l-10.6-63.7"/>
	<path class="st15_gaming-91" d="M303,238.6c0,0-10.4,21.1-12.7,33.8s0,33.8,0,33.8s8.1,3.4,14.8,1.2c0,0,1-31.2,2.1-34s8.8-14.7,9.1-27.1&#10;&#9;&#9;s-2.6-19.2-2.6-19.2"/>
	<path class="st11_gaming-91" d="M300.5,224.2c-0.6-4.2-1.1-8.8,0.1-12.9c2.1-2.3,4.4-4.4,6.9-6.3c0,0,3.5-4.2,6.6-1.8&#10;&#9;&#9;c3.5,2.6,7.8,19.1,6.9,25.6c-0.9,6-6,7.4-11.9,8.9c-2,0.5-4,0.9-6.1,1C302,233.9,301.1,229,300.5,224.2z"/>
	<path class="st14_gaming-91" d="M298.7,192.1c0,0,1,11.5,3.1,12.4s5.6-1.5,6.2-3.5s0-2.3-2-2.4s-0.6-0.1-1.9-0.6&#10;&#9;&#9;C301.4,197,305.1,190.5,298.7,192.1z"/>
	<path class="st15_gaming-91" d="M301.7,187c1-0.5,2.1-0.8,3.2-1.1c2.5-0.7,5.2-0.1,7.2,1.6c2.1,1.9,3.4,4.4,3.8,7.2c0.2,2.4-0.3,5.4-2.3,7&#10;&#9;&#9;c-2.5,2-6.9,3.6-8.8,0.6c-0.3-0.5-0.6-1-0.8-1.6c-0.9-2.2-2.2-4.3-3.8-6.1c-1.2-1.4-1.6-3.3-0.9-5.1&#10;&#9;&#9;C299.7,188.4,300.6,187.5,301.7,187z"/>
	<path class="st14_gaming-91" d="M282.4,211.8c0.6-0.6,1.6-0.8,2.4-0.4l-0.2-0.4c0-0.1,0-0.1,0-0.2c-0.5-0.3-0.2-1.2,0.5-1.1&#10;&#9;&#9;c1.2,0.2,2,0.3,2.5,1.5c0.4,1,0.7,2,0.9,3c1.6,1.8,3.3,3.5,5.3,5c0.6,0.5-0.2,1.3-0.9,0.9l-0.2-0.2c-0.1,0.2-0.2,0.3-0.4,0.4&#10;&#9;&#9;c0.2,0.3,0,0.7-0.3,0.8c0,0,0,0,0,0l-0.1,0.1c0.4,0.4,0.8,0.7,1.2,1.1c0.6,0.6-0.2,1.3-0.9,0.9s-1.3-1-2-1.5&#10;&#9;&#9;c0.3,0.3,0.6,0.6,0.9,0.9c0.5,0.6-0.3,1.4-0.9,0.9c-1.4-1.6-3-3-4.5-4.5c-0.8-0.3-1.7-0.6-2.5-1c-0.9-0.5-2.1-1.1-2.1-2.2&#10;&#9;&#9;C281.2,214.2,281.6,212.9,282.4,211.8z"/>
	<path class="st14_gaming-91" d="M279.2,209.9c0.4-0.6,0.9-0.6,1.5-0.9l0,0l-0.5-0.4c-0.6-0.4-1.2-1-1.6-1.6c-0.2-0.4,0.2-1.1,0.7-0.9&#10;&#9;&#9;c1.5,0.6,2.8,1.3,4.1,2.2l0,0c1.2,0.7,2,2.7,2.5,3.6c0.4,0.7-0.7,1.3-1,0.6l-0.3-0.6c-0.1,0.1-0.2,0.2-0.3,0.2&#10;&#9;&#9;c0,0.1,0.1,0.2,0.2,0.3c0.1,0.1,0.1,0.2,0.1,0.4c0,0.1,0.1,0.1,0.1,0.2c0.1,0.6,0.6,1.7-0.2,2.1c-0.1,0.1-0.2,0.1-0.4,0.1l1,1&#10;&#9;&#9;c0.2,0.2,0.2,0.6,0,0.8c-0.1,0.1-0.2,0.1-0.3,0.2c0,0.3-0.3,0.5-0.5,0.5c-0.1,0-0.1,0-0.1,0c-1.7-0.7-4.1-1.7-5.2-3.3&#10;&#9;&#9;C278.3,212.9,278.4,211.2,279.2,209.9z"/>
	<path class="st15_gaming-91" d="M289.2,214.4l8.5,7.5l0.5-3.4c0.4-2.1,1-4.1,1.9-6c5.6,2.8,9.3,9.8,7,15.5c-2.1,2.9-4.8,5.9-7.9,6.3&#10;&#9;&#9;c-6.4,0.8-15.4-11.7-15.4-11.7C284.1,219.3,289.2,214.4,289.2,214.4z"/>
	<path class="st15_gaming-91" d="M310.7,187.4c0-8,13.5-9.4,15.6-2c0.9,3.5-1.2,7.1-4.7,8c-0.7,0.2-1.3,0.2-2,0.2c-2.7-0.2-5.4-0.9-7.8-2.2"/>
</g>
</svg>